<svg width="160" height="45" viewBox="0 0 160 45" fill="none" xmlns="http://www.w3.org/2000/svg">
<rect width="160" height="45" fill="#C4C4C4"/>
<path d="M69.83 12.5234H66.3456V22H64.0019V12.5234H60.5644V10.625H69.83V12.5234ZM79.2975 17.0703H74.7975V20.1172H80.0787V22H72.4537V10.625H80.0631V12.5234H74.7975V15.2344H79.2975V17.0703ZM88.6322 19.0156C88.6322 18.5729 88.4759 18.2344 88.1634 18C87.8509 17.7604 87.2884 17.5104 86.4759 17.25C85.6634 16.9844 85.0202 16.724 84.5462 16.4688C83.2546 15.7708 82.6087 14.8307 82.6087 13.6484C82.6087 13.0339 82.7806 12.487 83.1244 12.0078C83.4733 11.5234 83.9707 11.1458 84.6166 10.875C85.2676 10.6042 85.9968 10.4688 86.8041 10.4688C87.6166 10.4688 88.3405 10.6172 88.9759 10.9141C89.6114 11.2057 90.1035 11.6198 90.4525 12.1562C90.8067 12.6927 90.9837 13.3021 90.9837 13.9844H88.64C88.64 13.4635 88.4759 13.0599 88.1478 12.7734C87.8197 12.4818 87.3587 12.3359 86.765 12.3359C86.1921 12.3359 85.7468 12.4583 85.4291 12.7031C85.1114 12.9427 84.9525 13.2604 84.9525 13.6562C84.9525 14.026 85.1374 14.3359 85.5072 14.5859C85.8822 14.8359 86.4317 15.0703 87.1556 15.2891C88.489 15.6901 89.4603 16.1875 90.0697 16.7812C90.6791 17.375 90.9837 18.1146 90.9837 19C90.9837 19.9844 90.6114 20.7578 89.8666 21.3203C89.1218 21.8776 88.1192 22.1562 86.8587 22.1562C85.9837 22.1562 85.1869 21.9974 84.4681 21.6797C83.7494 21.3568 83.1999 20.9167 82.8197 20.3594C82.4447 19.8021 82.2572 19.1562 82.2572 18.4219H84.6087C84.6087 19.6771 85.3587 20.3047 86.8587 20.3047C87.416 20.3047 87.8509 20.1927 88.1634 19.9688C88.4759 19.7396 88.6322 19.4219 88.6322 19.0156ZM102.42 12.5234H98.9356V22H96.5919V12.5234H93.1544V10.625H102.42V12.5234Z" fill="black"/>
<path opacity="0.4" d="M21.1787 32.7441C21.0908 33.4961 20.8125 34.0771 20.3438 34.4873C19.8783 34.8942 19.2581 35.0977 18.4834 35.0977C17.6436 35.0977 16.9697 34.7965 16.4619 34.1943C15.9574 33.5921 15.7051 32.7865 15.7051 31.7773V31.0938C15.7051 30.4329 15.8223 29.8519 16.0566 29.3506C16.2943 28.8493 16.6296 28.4652 17.0625 28.1982C17.4954 27.9281 17.9967 27.793 18.5664 27.793C19.3216 27.793 19.9271 28.0046 20.3828 28.4277C20.8385 28.8477 21.1038 29.4303 21.1787 30.1758H20.2363C20.1549 29.6094 19.9775 29.1992 19.7041 28.9453C19.4339 28.6914 19.0547 28.5645 18.5664 28.5645C17.9674 28.5645 17.4971 28.7858 17.1553 29.2285C16.8167 29.6712 16.6475 30.3011 16.6475 31.1182V31.8066C16.6475 32.5781 16.8086 33.1917 17.1309 33.6475C17.4531 34.1032 17.904 34.3311 18.4834 34.3311C19.0042 34.3311 19.403 34.2139 19.6797 33.9795C19.9596 33.7419 20.1452 33.3301 20.2363 32.7441H21.1787ZM24.5137 35.0977C23.7975 35.0977 23.2148 34.8633 22.7656 34.3945C22.3164 33.9225 22.0918 33.2926 22.0918 32.5049V32.3389C22.0918 31.8148 22.1911 31.3477 22.3896 30.9375C22.5915 30.5241 22.8714 30.2018 23.2295 29.9707C23.5908 29.7363 23.9814 29.6191 24.4014 29.6191C25.0882 29.6191 25.6221 29.8454 26.0029 30.2979C26.3838 30.7503 26.5742 31.3981 26.5742 32.2412V32.6172H22.9951C23.0081 33.138 23.1595 33.5596 23.4492 33.8818C23.7422 34.2008 24.1133 34.3604 24.5625 34.3604C24.8815 34.3604 25.1517 34.2952 25.373 34.165C25.5944 34.0348 25.7881 33.8623 25.9541 33.6475L26.5059 34.0771C26.0632 34.7575 25.3991 35.0977 24.5137 35.0977ZM24.4014 30.3613C24.0368 30.3613 23.7308 30.4948 23.4834 30.7617C23.236 31.0254 23.083 31.3965 23.0244 31.875H25.6709V31.8066C25.6449 31.3477 25.5212 30.9928 25.2998 30.7422C25.0785 30.4883 24.779 30.3613 24.4014 30.3613ZM31.4912 30.4492H29.7188V35H28.8154V30.4492H27.0771V29.7168H31.4912V30.4492ZM33.3564 31.5381H34.7285C35.3275 31.5446 35.8011 31.7008 36.1494 32.0068C36.4977 32.3128 36.6719 32.7279 36.6719 33.252C36.6719 33.7793 36.4928 34.2025 36.1348 34.5215C35.7767 34.8405 35.2949 35 34.6895 35H32.4531V29.7168H33.3564V31.5381ZM33.3564 32.2754V34.2627H34.6992C35.0378 34.2627 35.2998 34.1764 35.4854 34.0039C35.6709 33.8281 35.7637 33.5889 35.7637 33.2861C35.7637 32.9932 35.6725 32.7539 35.4902 32.5684C35.3112 32.3796 35.0589 32.2819 34.7334 32.2754H33.3564ZM43.3223 33.8037L45.1191 29.7168H46.2471V35H45.3438V31.1572L43.6348 35H43.0098L41.2666 31.0742V35H40.3633V29.7168H41.5352L43.3223 33.8037ZM49.8945 35.0977C49.1784 35.0977 48.5957 34.8633 48.1465 34.3945C47.6973 33.9225 47.4727 33.2926 47.4727 32.5049V32.3389C47.4727 31.8148 47.5719 31.3477 47.7705 30.9375C47.9723 30.5241 48.2523 30.2018 48.6104 29.9707C48.9717 29.7363 49.3623 29.6191 49.7822 29.6191C50.4691 29.6191 51.0029 29.8454 51.3838 30.2979C51.7646 30.7503 51.9551 31.3981 51.9551 32.2412V32.6172H48.376C48.389 33.138 48.5404 33.5596 48.8301 33.8818C49.123 34.2008 49.4941 34.3604 49.9434 34.3604C50.2624 34.3604 50.5326 34.2952 50.7539 34.165C50.9753 34.0348 51.1689 33.8623 51.335 33.6475L51.8867 34.0771C51.444 34.7575 50.7799 35.0977 49.8945 35.0977ZM49.7822 30.3613C49.4176 30.3613 49.1117 30.4948 48.8643 30.7617C48.6169 31.0254 48.4639 31.3965 48.4053 31.875H51.0518V31.8066C51.0257 31.3477 50.902 30.9928 50.6807 30.7422C50.4593 30.4883 50.1598 30.3613 49.7822 30.3613ZM55.3242 30.0195C55.9883 30.0195 56.5189 30.2425 56.916 30.6885C57.3164 31.1312 57.5166 31.7155 57.5166 32.4414V32.5244C57.5166 33.0225 57.4206 33.4684 57.2285 33.8623C57.0365 34.2529 56.7598 34.5573 56.3984 34.7754C56.0404 34.9902 55.627 35.0977 55.1582 35.0977C54.4486 35.0977 53.8773 34.8617 53.4443 34.3896C53.0114 33.9144 52.7949 33.278 52.7949 32.4805V32.041C52.7949 30.931 53 30.0488 53.4102 29.3945C53.8236 28.7402 54.4323 28.3415 55.2363 28.1982C55.6921 28.1169 55.9997 28.0176 56.1592 27.9004C56.3187 27.7832 56.3984 27.6221 56.3984 27.417H57.1406C57.1406 27.8239 57.0479 28.1413 56.8623 28.3691C56.68 28.597 56.387 28.7581 55.9834 28.8525L55.3096 29.0039C54.7725 29.1309 54.3688 29.3457 54.0986 29.6484C53.8317 29.9479 53.6576 30.3483 53.5762 30.8496C54.0547 30.2962 54.6374 30.0195 55.3242 30.0195ZM55.1484 30.7617C54.7057 30.7617 54.3542 30.9115 54.0938 31.2109C53.8333 31.5072 53.7031 31.9189 53.7031 32.4463V32.5244C53.7031 33.0908 53.8333 33.54 54.0938 33.8721C54.3574 34.2008 54.7122 34.3652 55.1582 34.3652C55.6074 34.3652 55.9622 34.1992 56.2227 33.8672C56.4831 33.5352 56.6133 33.0501 56.6133 32.4121C56.6133 31.9141 56.4814 31.5153 56.2178 31.2158C55.9574 30.9131 55.6009 30.7617 55.1484 30.7617ZM60.7246 35.0977C60.0085 35.0977 59.4258 34.8633 58.9766 34.3945C58.5273 33.9225 58.3027 33.2926 58.3027 32.5049V32.3389C58.3027 31.8148 58.402 31.3477 58.6006 30.9375C58.8024 30.5241 59.0824 30.2018 59.4404 29.9707C59.8018 29.7363 60.1924 29.6191 60.6123 29.6191C61.2992 29.6191 61.833 29.8454 62.2139 30.2979C62.5947 30.7503 62.7852 31.3981 62.7852 32.2412V32.6172H59.2061C59.2191 33.138 59.3704 33.5596 59.6602 33.8818C59.9531 34.2008 60.3242 34.3604 60.7734 34.3604C61.0924 34.3604 61.3626 34.2952 61.584 34.165C61.8053 34.0348 61.999 33.8623 62.165 33.6475L62.7168 34.0771C62.2741 34.7575 61.61 35.0977 60.7246 35.0977ZM60.6123 30.3613C60.2477 30.3613 59.9417 30.4948 59.6943 30.7617C59.4469 31.0254 59.2939 31.3965 59.2354 31.875H61.8818V31.8066C61.8558 31.3477 61.7321 30.9928 61.5107 30.7422C61.2894 30.4883 60.9899 30.3613 60.6123 30.3613ZM68.166 29.7168V35H67.2578V30.4639H65.4609L65.3535 32.4414C65.2949 33.3496 65.1419 33.999 64.8945 34.3896C64.6504 34.7803 64.2614 34.9837 63.7275 35H63.3662V34.2041L63.625 34.1846C63.918 34.152 64.1279 33.9827 64.2549 33.6768C64.3818 33.3708 64.4632 32.8044 64.499 31.9775L64.5967 29.7168H68.166ZM70.6025 31.5381H71.9746C72.5736 31.5446 73.0472 31.7008 73.3955 32.0068C73.7438 32.3128 73.918 32.7279 73.918 33.252C73.918 33.7793 73.7389 34.2025 73.3809 34.5215C73.0228 34.8405 72.541 35 71.9355 35H69.6992V29.7168H70.6025V31.5381ZM70.6025 32.2754V34.2627H71.9453C72.2839 34.2627 72.5459 34.1764 72.7314 34.0039C72.917 33.8281 73.0098 33.5889 73.0098 33.2861C73.0098 32.9932 72.9186 32.7539 72.7363 32.5684C72.5573 32.3796 72.305 32.2819 71.9795 32.2754H70.6025ZM79.3623 35H78.459V32.7441H76.0322V35H75.124V29.7168H76.0322V32.0068H78.459V29.7168H79.3623V35ZM81.8037 31.5381H83.1758C83.7747 31.5446 84.2484 31.7008 84.5967 32.0068C84.945 32.3128 85.1191 32.7279 85.1191 33.252C85.1191 33.7793 84.9401 34.2025 84.582 34.5215C84.224 34.8405 83.7422 35 83.1367 35H80.9004V29.7168H81.8037V31.5381ZM87.0039 35H86.0957V29.7168H87.0039V35ZM81.8037 32.2754V34.2627H83.1465C83.485 34.2627 83.7471 34.1764 83.9326 34.0039C84.1182 33.8281 84.2109 33.5889 84.2109 33.2861C84.2109 32.9932 84.1198 32.7539 83.9375 32.5684C83.7585 32.3796 83.5062 32.2819 83.1807 32.2754H81.8037ZM90.3535 31.6455L91.5254 29.7168H92.5801L90.8516 32.3291L92.6338 35H91.5889L90.3682 33.0225L89.1475 35H88.0977L89.8799 32.3291L88.1514 29.7168H89.1963L90.3535 31.6455ZM99.0645 33.8037L100.861 29.7168H101.989V35H101.086V31.1572L99.377 35H98.752L97.0088 31.0742V35H96.1055V29.7168H97.2773L99.0645 33.8037ZM106.706 35C106.654 34.8958 106.612 34.7103 106.579 34.4434C106.159 34.8796 105.658 35.0977 105.075 35.0977C104.554 35.0977 104.126 34.9512 103.791 34.6582C103.459 34.362 103.293 33.9876 103.293 33.5352C103.293 32.985 103.501 32.5586 103.918 32.2559C104.338 31.9499 104.927 31.7969 105.686 31.7969H106.564V31.3818C106.564 31.0661 106.47 30.8154 106.281 30.6299C106.092 30.4411 105.814 30.3467 105.446 30.3467C105.124 30.3467 104.854 30.4281 104.636 30.5908C104.418 30.7536 104.309 30.9505 104.309 31.1816H103.4C103.4 30.918 103.493 30.6641 103.679 30.4199C103.868 30.1725 104.121 29.9772 104.44 29.834C104.763 29.6908 105.116 29.6191 105.5 29.6191C106.109 29.6191 106.586 29.7721 106.931 30.0781C107.276 30.3809 107.455 30.7992 107.468 31.333V33.7646C107.468 34.2497 107.53 34.6354 107.653 34.9219V35H106.706ZM105.207 34.3115C105.49 34.3115 105.759 34.2383 106.013 34.0918C106.267 33.9453 106.451 33.7549 106.564 33.5205V32.4365H105.856C104.75 32.4365 104.196 32.7604 104.196 33.4082C104.196 33.6914 104.291 33.9128 104.479 34.0723C104.668 34.2318 104.911 34.3115 105.207 34.3115ZM112.297 30.4639H109.86V35H108.952V29.7168H112.297V30.4639ZM116.345 35C116.293 34.8958 116.25 34.7103 116.218 34.4434C115.798 34.8796 115.297 35.0977 114.714 35.0977C114.193 35.0977 113.765 34.9512 113.43 34.6582C113.098 34.362 112.932 33.9876 112.932 33.5352C112.932 32.985 113.14 32.5586 113.557 32.2559C113.977 31.9499 114.566 31.7969 115.324 31.7969H116.203V31.3818C116.203 31.0661 116.109 30.8154 115.92 30.6299C115.731 30.4411 115.453 30.3467 115.085 30.3467C114.763 30.3467 114.493 30.4281 114.274 30.5908C114.056 30.7536 113.947 30.9505 113.947 31.1816H113.039C113.039 30.918 113.132 30.6641 113.317 30.4199C113.506 30.1725 113.76 29.9772 114.079 29.834C114.401 29.6908 114.755 29.6191 115.139 29.6191C115.747 29.6191 116.224 29.7721 116.569 30.0781C116.914 30.3809 117.093 30.7992 117.106 31.333V33.7646C117.106 34.2497 117.168 34.6354 117.292 34.9219V35H116.345ZM114.846 34.3115C115.129 34.3115 115.397 34.2383 115.651 34.0918C115.905 33.9453 116.089 33.7549 116.203 33.5205V32.4365H115.495C114.388 32.4365 113.835 32.7604 113.835 33.4082C113.835 33.6914 113.929 33.9128 114.118 34.0723C114.307 34.2318 114.549 34.3115 114.846 34.3115ZM121.428 31.1621C121.428 30.9147 121.333 30.7194 121.145 30.5762C120.956 30.4297 120.697 30.3564 120.368 30.3564C120.049 30.3564 119.782 30.4395 119.567 30.6055C119.356 30.7715 119.25 30.9668 119.25 31.1914H118.352C118.352 30.7324 118.544 30.3564 118.928 30.0635C119.312 29.7705 119.792 29.624 120.368 29.624C120.987 29.624 121.468 29.7575 121.813 30.0244C122.159 30.2881 122.331 30.6657 122.331 31.1572C122.331 31.3949 122.259 31.613 122.116 31.8115C121.973 32.0101 121.77 32.168 121.506 32.2852C122.121 32.4935 122.429 32.9036 122.429 33.5156C122.429 34.0007 122.242 34.3848 121.867 34.668C121.493 34.9512 120.993 35.0928 120.368 35.0928C119.759 35.0928 119.257 34.9447 118.859 34.6484C118.465 34.349 118.269 33.9453 118.269 33.4375H119.167C119.167 33.6947 119.281 33.916 119.509 34.1016C119.74 34.2839 120.026 34.375 120.368 34.375C120.713 34.375 120.992 34.2952 121.203 34.1357C121.415 33.9762 121.521 33.7695 121.521 33.5156C121.521 33.2194 121.431 33.0078 121.252 32.8809C121.076 32.7507 120.801 32.6855 120.427 32.6855H119.523V31.9238H120.505C121.12 31.9076 121.428 31.6536 121.428 31.1621ZM127.019 29.7168H127.922V35H127.019V31.1475L124.582 35H123.679V29.7168H124.582V33.5742L127.019 29.7168ZM133.688 35H132.785V32.7441H130.358V35H129.45V29.7168H130.358V32.0068H132.785V29.7168H133.688V35ZM134.904 32.3096C134.904 31.792 135.005 31.3265 135.207 30.9131C135.412 30.4997 135.695 30.1807 136.057 29.9561C136.421 29.7314 136.836 29.6191 137.302 29.6191C138.021 29.6191 138.602 29.8682 139.045 30.3662C139.491 30.8643 139.714 31.5267 139.714 32.3535V32.417C139.714 32.9313 139.615 33.3936 139.416 33.8037C139.221 34.2106 138.939 34.528 138.571 34.7559C138.207 34.9837 137.787 35.0977 137.312 35.0977C136.595 35.0977 136.014 34.8486 135.568 34.3506C135.126 33.8525 134.904 33.1934 134.904 32.373V32.3096ZM135.812 32.417C135.812 33.0029 135.948 33.4733 136.218 33.8281C136.491 34.1829 136.856 34.3604 137.312 34.3604C137.771 34.3604 138.135 34.1813 138.405 33.8232C138.675 33.4619 138.811 32.9574 138.811 32.3096C138.811 31.7301 138.672 31.2614 138.396 30.9033C138.122 30.542 137.757 30.3613 137.302 30.3613C136.856 30.3613 136.496 30.5387 136.223 30.8936C135.949 31.2484 135.812 31.7562 135.812 32.417ZM140.93 35V29.7168H142.99C143.693 29.7168 144.232 29.8405 144.606 30.0879C144.984 30.332 145.173 30.6917 145.173 31.167C145.173 31.4111 145.1 31.6325 144.953 31.8311C144.807 32.0264 144.59 32.1761 144.304 32.2803C144.623 32.3551 144.878 32.5016 145.07 32.7197C145.266 32.9378 145.363 33.1982 145.363 33.501C145.363 33.986 145.184 34.3571 144.826 34.6143C144.471 34.8714 143.968 35 143.317 35H140.93ZM141.833 32.6807V34.2725H143.327C143.705 34.2725 143.986 34.2025 144.172 34.0625C144.361 33.9225 144.455 33.7256 144.455 33.4717C144.455 32.9443 144.068 32.6807 143.293 32.6807H141.833ZM141.833 31.958H143C143.846 31.958 144.27 31.7106 144.27 31.2158C144.27 30.721 143.869 30.4655 143.068 30.4492H141.833V31.958Z" fill="black"/>
</svg>
